<?xml version="1.0" encoding="UTF-8"?>
<svg width="150px" height="53px" viewBox="0 0 150 53" version="1.1" xmlns="http://www.w3.org/2000/svg" xmlns:xlink="http://www.w3.org/1999/xlink">
    <title>Group</title>
    <g id="Page-1" stroke="none" stroke-width="1" fill="none" fill-rule="evenodd">
        <g id="Homescreen" transform="translate(-27.000000, -42.000000)">
            <g id="Group" transform="translate(27.000000, 42.000000)">
                <g id="logo_color_horizontal" fill="#FFFFFF" fill-rule="nonzero">
                    <path d="M33.5245423,17.2000889 C33.5245423,9.65420444 42.5848878,10.3740421 45.0363621,10.609851 C45.6681853,10.671906 48.51139,11.1497292 48.7262099,11.2304007 L48.0943867,16.9704855 C47.3993811,16.877403 45.143772,16.6477996 44.4866758,16.6353886 C40.3229605,16.5485117 40.063913,17.3614318 40.063913,20.3214539 L40.063913,34.3458772 L33.5245423,34.3458772 L33.5245423,17.2000889 Z M56.0490415,23.4428189 L56.0490415,24.0633686 C56.0490415,28.1838186 58.8922462,29.9710018 62.7653228,29.9710018 C64.4624073,29.969413 66.1552867,29.805224 67.8199089,29.4807675 C68.2897064,29.3852939 68.7787055,29.4892737 69.1662269,29.7670458 C69.5537484,30.044818 69.8036939,30.4705075 69.8543798,30.9390593 L70.1576549,33.7749715 C67.490709,34.556883 64.7268666,34.9745026 61.9439525,35.0160709 C55.1328978,35.0160709 49.680263,31.8078289 49.680263,22.0527876 C49.680263,16.0086334 52.8962434,10.4671246 60.9646265,10.4671246 C68.148457,10.4671246 70.8526605,14.3579712 70.8526605,19.3968348 C70.8476819,20.3434995 70.7610226,21.2880468 70.593613,22.220336 C70.4621807,22.9383176 69.8263018,23.4609394 69.0835554,23.4614354 L56.0490415,23.4428189 Z M61.1352188,14.9661099 C57.0283676,14.9661099 56.2828161,18.3605168 56.2385885,19.7319317 L65.3810711,19.7319317 C65.3810711,16.9828965 64.0731969,14.9661099 61.1352188,14.9661099 L61.1352188,14.9661099 Z M70.7642053,3.7217408 L75.8187914,3.7217408 C76.8684921,3.72038458 77.7974002,4.3889266 78.1123098,5.37241148 L84.8728187,26.6820884 L91.6143729,5.39723347 C91.9191136,4.40049177 92.8545971,3.7189704 93.9142096,3.7217408 L99.0067051,3.7217408 L88.2657096,34.3210552 L81.5052007,34.3210552 L70.7642053,3.7217408 Z M121.941889,32.7882975 C118.113878,34.0583654 114.104035,34.7203342 110.063612,34.7492345 C105.072208,34.7492345 100.409353,32.645571 100.409353,26.2290871 L100.409353,10.8456599 L106.936087,10.8456599 L106.936087,25.7388528 C106.936087,29.0401772 108.989513,29.8158644 111.32094,29.9523853 C112.707563,29.9832091 114.091278,29.8138536 115.427792,29.44974 L115.427792,10.8332489 L121.941889,10.8332489 L121.941889,32.7882975 Z M132.202699,23.4428189 L132.202699,24.0633686 C132.202699,28.1838186 135.052222,29.9710018 138.91898,29.9710018 C140.616045,29.9690193 142.308886,29.8048341 143.973567,29.4807675 C144.442896,29.3831989 144.932324,29.4864976 145.319409,29.7648213 C145.706494,30.043145 145.954622,30.470167 146.001719,30.9390593 L146.311313,33.7749715 C143.64412,34.5558077 140.88043,34.9734044 138.09761,35.0160709 C131.286555,35.0160709 125.827603,31.8078289 125.827603,22.0527876 C125.827603,16.0086334 129.043583,10.4671246 137.118284,10.4671246 C144.295796,10.4671246 147,14.3579712 147,19.3968348 C146.995021,20.3434995 146.908362,21.2880468 146.740952,22.220336 C146.60952,22.9383176 145.973641,23.4609394 145.230895,23.4614354 L132.202699,23.4428189 Z M137.288876,14.9661099 C133.182025,14.9661099 132.436474,18.3605168 132.392246,19.7319317 L141.528411,19.7319317 C141.528411,16.9828965 140.264764,14.9661099 137.301513,14.9661099 L137.288876,14.9661099 Z" id="Shape"></path>
                    <path d="M10.2039457,4.34229897 C9.77589547,4.10509313 9.25266097,4.10523597 8.82474509,4.34267548 C8.39682921,4.58011498 8.12666307,5.02020973 8.11261068,5.50272692 L8.11261068,33.1978603 C8.10912385,36.4032971 5.46241697,39 2.19874495,39 L0,39 L0,14.5503416 C0,14.2648888 0,13.9918469 0,13.7125995 C0,13.6381336 0,13.5698731 0,13.5016126 C0.201851442,10.9032745 1.11190505,8.40616369 2.634703,6.27220855 L2.72315826,6.14809861 C3.4888274,5.09014403 4.39389833,4.13653539 5.41472535,3.31218646 C6.18134028,2.69644032 7.25644513,2.61236223 8.11261068,3.10119956 L10.2039457,4.34229897 Z" id="Path"></path>
                    <path d="M29.6325339,14.5503416 C29.633633,15.1583571 29.5935288,15.7657712 29.5124645,16.3685523 C29.5124645,16.4864567 29.5124645,16.5981556 29.4682369,16.7098546 C29.4655237,16.7262953 29.4655237,16.7430579 29.4682369,16.7594986 C29.4682369,16.8836085 29.4303275,17.001513 29.4050546,17.1194174 C29.3797817,17.2373218 29.360827,17.3614318 29.335554,17.4793362 C29.335554,17.4793362 29.335554,17.4793362 29.335554,17.4793362 C29.2539584,17.8836451 29.1506158,18.2834254 29.0259606,18.6769972 C28.4246345,20.6532428 27.4015402,22.4809927 26.0248001,24.0385466 C25.9489813,24.1316291 25.8668443,24.218506 25.7910255,24.305383 L25.7910255,24.305383 L25.5825239,24.5287809 C25.5647458,24.5399357 25.5496537,24.5547585 25.5382962,24.5722194 C21.4830871,28.7268641 15.3129444,30.1384418 9.80589702,28.1714076 L9.80589702,27.0233907 C9.80761266,25.8001197 10.4686876,24.6691929 11.543411,24.0509576 L26.157483,15.7417971 L28.2614545,14.5503416 C29.1250501,14.057741 29.5879965,13.091533 29.4240093,12.1239923 C29.5639704,12.9254384 29.6337263,13.7371929 29.6325339,14.5503416 L29.6325339,14.5503416 Z" id="Path"></path>
                    <path d="M29.4240093,12.1239923 C29.4240093,12.1239923 29.4240093,12.0929648 29.4240093,12.0805538 L29.3860999,11.8633614 C29.3229176,11.546881 29.253417,11.2428117 29.17128,10.9139203 C29.089143,10.585029 28.9754148,10.2251102 28.8553683,9.89001333 C28.8553683,9.89001333 28.8553683,9.89001333 28.8553683,9.89001333 C28.792186,9.71005392 28.7290037,9.5300945 28.6531849,9.35013509 L28.6531849,9.35013509 C28.5773661,9.15776468 28.4952291,8.95918877 28.4067738,8.76681837 L28.4067738,8.76681837 L28.2740909,8.4813655 L28.2740909,8.44413252 C27.8353588,7.51772464 27.2973788,6.63986351 26.6692599,5.82541276 L26.6060775,5.7447413 L26.4481217,5.5461654 C25.9782376,4.96359342 25.4650564,4.41601115 24.9127912,3.90791417 L24.9127912,3.90791417 C24.465944,3.49846094 23.9932441,3.11709988 23.4975071,2.76610272 L23.3774607,2.68543126 C22.8487993,2.31491326 22.295804,1.97908584 21.7220837,1.68014073 L21.7220837,1.68014073 C20.5134284,1.04968363 19.2201572,0.590073409 17.8805983,0.314931382 C17.5078226,0.23425992 17.1224104,0.17220495 16.7433164,0.122560973 C16.3642225,0.0729169967 16.0925385,0.0480950085 15.7955815,0.0294785174 C14.4793509,-0.0526685844 13.157841,0.0370597173 11.8656408,0.296314891 L11.7582309,0.296314891 C9.4372988,0.781577131 7.26987233,1.80976498 5.43999828,3.29356997 C6.20551709,2.69497881 7.26641744,2.61861688 8.11261068,3.10119956 L10.2039457,4.34229897 L10.2039457,4.34229897 L14.2160234,6.61971639 C14.9123155,7.01306674 15.341286,7.74208622 15.3406688,8.53100948 L15.3406688,12.2853352 C15.34808,12.5489477 15.4968966,12.7890496 15.7319168,12.9165782 C15.966937,13.0441068 16.2531044,13.0400395 16.4842689,12.9058849 L19.7950228,11.0442358 C20.4902502,10.6470299 21.3490862,10.6470299 22.0443136,11.0442358 L26.1448466,13.3650917 C26.580325,13.6107832 26.8488294,14.0663967 26.8488294,14.5596499 C26.8488294,15.052903 26.580325,15.5085165 26.1448466,15.754208 L28.248818,14.5627526 C29.1221454,14.0719926 29.5912727,13.0984582 29.4240093,12.1239923 Z" id="Path"></path>
                </g>
                <text id="admin-portal" font-family="Poppins-Regular, Poppins" font-size="9.54738331" font-weight="normal" letter-spacing="-0.000598470184" fill="#FF53A5">
                    <tspan x="83.4268581" y="49">admin portal</tspan>
                </text>
            </g>
        </g>
    </g>
</svg>