<?xml version="1.0" encoding="UTF-8"?>
<svg width="283px" height="101px" viewBox="0 0 283 101" version="1.1" xmlns="http://www.w3.org/2000/svg" xmlns:xlink="http://www.w3.org/1999/xlink">
    <title>Group</title>
    <defs>
        <linearGradient x1="0%" y1="49.9900988%" x2="100%" y2="49.9900988%" id="linearGradient-1">
            <stop stop-color="#FF53A4" offset="0%"></stop>
            <stop stop-color="#5637FF" offset="99%"></stop>
        </linearGradient>
        <linearGradient x1="50.002377%" y1="95.0479264%" x2="49.997623%" y2="9.7146166%" id="linearGradient-2">
            <stop stop-color="#FF53A4" offset="0%"></stop>
            <stop stop-color="#5637FF" offset="99%"></stop>
        </linearGradient>
        <linearGradient x1="94.0725491%" y1="38.9635742%" x2="11.5678643%" y2="81.2282461%" id="linearGradient-3">
            <stop stop-color="#FF53A4" offset="0%"></stop>
            <stop stop-color="#5637FF" offset="99%"></stop>
        </linearGradient>
        <linearGradient x1="18.1253542%" y1="33.9362668%" x2="95.1515326%" y2="63.7460756%" id="linearGradient-4">
            <stop stop-color="#FF53A4" offset="0%"></stop>
            <stop stop-color="#5637FF" offset="99%"></stop>
        </linearGradient>
    </defs>
    <g id="Page-1" stroke="none" stroke-width="1" fill="none" fill-rule="evenodd">
        <g id="Login" transform="translate(-578.000000, -187.000000)">
            <g id="Group" transform="translate(578.000000, 187.000000)">
                <g id="logo_color_horizontal" fill-rule="nonzero">
                    <path d="M63.4001547,33.077094 C63.4001547,18.5657778 80.5346858,19.950081 85.1708072,20.4035596 C86.3656838,20.5228961 91.7426287,21.441787 92.1488868,21.5969244 L90.9540101,32.635549 C89.6396458,32.4565443 85.3739362,32.0149993 84.1312645,31.991132 C76.2570274,31.8240609 75.767128,33.3873688 75.767128,39.079719 L75.767128,66.0497639 L63.4001547,66.0497639 L63.4001547,33.077094 Z M105.997507,45.082344 L105.997507,46.2757088 C105.997507,54.1996512 111.374452,57.6365419 118.699046,57.6365419 C121.908498,57.6334865 125.109998,57.3177384 128.258059,56.6937837 C129.14652,56.5101806 130.071293,56.7101417 130.804157,57.2443189 C131.537021,57.7784961 132.009707,58.5971299 132.105562,59.498191 L132.679103,64.9518682 C127.635491,66.4555442 122.408632,67.2586588 117.145706,67.3385979 C104.264936,67.3385979 93.9531505,61.1689018 93.9531505,42.4092068 C93.9531505,30.7858335 100.035073,20.1290857 115.293647,20.1290857 C128.879395,20.1290857 133.993467,27.6114831 133.993467,37.3016054 C133.984051,39.1221144 133.820165,40.9385515 133.503567,42.7314153 C133.255008,44.1121493 132.052462,45.1171911 130.647812,45.118145 L105.997507,45.082344 Z M115.616264,28.7809806 C107.849566,28.7809806 106.439611,35.3086862 106.35597,37.9460224 L123.645835,37.9460224 C123.645835,32.6594163 121.17244,28.7809806 115.616264,28.7809806 L115.616264,28.7809806 Z M133.826184,7.15719384 L143.385197,7.15719384 C145.370346,7.15458574 147.127056,8.44024347 147.7226,10.3315605 L160.50778,51.3117084 L173.257113,10.3792951 C173.833426,8.46248418 175.602571,7.15186615 177.606464,7.15719384 L187.23717,7.15719384 L166.924267,66.0020293 L154.139087,66.0020293 L133.826184,7.15719384 Z M230.611192,63.0544182 C223.371824,65.4968566 215.788584,66.7698735 208.147511,66.825451 C198.707986,66.825451 189.889796,62.7799443 189.889796,50.4405521 L189.889796,20.8570382 L202.232872,20.8570382 L202.232872,49.4977938 C202.232872,55.8464947 206.116221,57.3382007 210.525316,57.600741 C213.147637,57.6600175 215.764458,57.3343339 218.292014,56.6341155 L218.292014,20.8331709 L230.611192,20.8331709 L230.611192,63.0544182 Z M250.015989,45.082344 L250.015989,46.2757088 C250.015989,54.1996512 255.404883,57.6365419 262.717528,57.6365419 C265.926942,57.6327295 269.128369,57.3169886 272.276541,56.6937837 C273.164117,56.5061518 274.089701,56.704803 274.821739,57.240041 C275.553778,57.7752789 276.023027,58.5964751 276.112095,59.498191 L276.697584,64.9518682 C271.653507,66.4534764 266.426936,67.2565469 261.164188,67.3385979 C248.283418,67.3385979 237.959684,61.1689018 237.959684,42.4092068 C237.959684,30.7858335 244.041606,20.1290857 259.312129,20.1290857 C272.885928,20.1290857 278,27.6114831 278,37.3016054 C277.990585,39.1221144 277.826698,40.9385515 277.510101,42.7314153 C277.261541,44.1121493 276.058995,45.1171911 274.654345,45.118145 L250.015989,45.082344 Z M259.634746,28.7809806 C251.868048,28.7809806 250.458093,35.3086862 250.374452,37.9460224 L267.652368,37.9460224 C267.652368,32.6594163 265.262615,28.7809806 259.658644,28.7809806 L259.634746,28.7809806 Z" id="Shape" fill="url(#linearGradient-1)"></path>
                    <path d="M19.2972578,8.35057494 C18.4877479,7.89440987 17.4982296,7.89468456 16.6889737,8.351299 C15.8797178,8.80791343 15.3687914,9.65424948 15.3422161,10.5821671 L15.3422161,63.842039 C15.335622,70.0063406 10.3302852,75 4.15817072,75 L0,75 L0,27.9814262 C0,27.4324784 0,26.9073979 0,26.3703837 C0,26.2271799 0,26.0959098 0,25.9646396 C0.381732659,20.9678355 2.10278643,16.1656994 4.98263561,12.0619395 L5.14991834,11.8232666 C6.59791849,9.78873853 8.30954923,7.95487575 10.2400928,6.36958934 C11.6898816,5.18546215 13.7230731,5.02377352 15.3422161,5.9638453 L19.2972578,8.35057494 Z" id="Path" fill="url(#linearGradient-2)"></path>
                    <path d="M56.0397579,27.9814262 C56.0418366,29.1506867 55.9659933,30.3187907 55.812688,31.4779851 C55.812688,31.7047244 55.812688,31.9195301 55.7290467,32.1343358 C55.7239155,32.1659525 55.7239155,32.1981882 55.7290467,32.2298049 C55.7290467,32.4684779 55.6573541,32.6952172 55.609559,32.9219565 C55.5617639,33.1486958 55.5259176,33.3873688 55.4781226,33.6141081 C55.4781226,33.6141081 55.4781226,33.6141081 55.4781226,33.6141081 C55.3238124,34.3916252 55.1283755,35.1604335 54.892633,35.9173022 C53.7554312,39.7177747 51.8205998,43.2326783 49.216969,46.2279742 C49.0735838,46.406979 48.9182498,46.57405 48.7748646,46.7411211 L48.7748646,46.7411211 L48.3805553,47.1707325 C48.3469342,47.192184 48.3183927,47.2206894 48.296914,47.254268 C40.6278789,55.2439693 28.9591738,57.958542 18.5444855,54.1757839 L18.5444855,51.968059 C18.5477301,49.6156147 19.7979262,47.4407556 21.8303963,46.2518415 L49.4678931,30.2726866 L53.4468323,27.9814262 C55.0800267,27.0341174 55.9555308,25.176025 55.6454053,23.3153698 C55.9100936,24.8566123 56.042013,26.4176787 56.0397579,27.9814262 L56.0397579,27.9814262 Z" id="Path" fill="url(#linearGradient-3)"></path>
                    <path d="M55.6454053,23.3153698 C55.6454053,23.3153698 55.6454053,23.2557015 55.6454053,23.2318342 L55.5737127,22.8141565 C55.454225,22.2055405 55.3227886,21.6207917 55.1674547,20.9883084 C55.0121207,20.355825 54.7970429,19.6636734 54.5700163,19.0192564 C54.5700163,19.0192564 54.5700163,19.0192564 54.5700163,19.0192564 C54.4505287,18.6731806 54.331041,18.3271048 54.1876558,17.981029 L54.1876558,17.981029 C54.0442706,17.6110859 53.8889366,17.2292092 53.7216539,16.8592661 L53.7216539,16.8592661 L53.4707298,16.3103183 L53.4707298,16.2387164 C52.6410186,14.4571628 51.6236143,12.7689683 50.4357431,11.2027169 L50.3162555,11.0475794 L50.0175363,10.6657027 C49.1289119,9.54537197 48.1584059,8.49232913 47.1139861,7.51521957 L47.1139861,7.51521957 C46.2689282,6.7278095 45.3749786,5.99442284 44.4374624,5.3194283 L44.2104358,5.16429088 C43.2106546,4.45175627 42.1648539,3.80593431 41.079859,3.23103987 L41.079859,3.23103987 C38.7941028,2.01862236 36.3483246,1.13475656 33.815009,0.605637273 C33.1100318,0.450499846 32.3811571,0.331163365 31.6642311,0.235694179 C30.9473051,0.140224994 30.4335081,0.092490401 29.8719161,0.0566894565 C27.382718,-0.101285739 24.883536,0.0712686871 22.4397834,0.569836328 L22.2366543,0.569836328 C17.8474086,1.50303294 13.748466,3.48031727 10.2878879,6.3337884 C11.7356037,5.18265155 13.7419323,5.03580169 15.3422161,5.9638453 L19.2972578,8.35057494 L19.2972578,8.35057494 L26.8847245,12.7302238 C28.2015218,13.4866668 29.0127722,14.8886274 29.0116049,16.4057875 L29.0116049,23.6256446 C29.0256208,24.1325917 29.3070561,24.5943262 29.7515161,24.8395735 C30.195976,25.0848208 30.7371635,25.076999 31.1743316,24.8190094 L37.4354853,21.238915 C38.750269,20.4750575 40.3744624,20.4750575 41.6892461,21.238915 L49.4439955,25.7020994 C50.2675534,26.1745831 50.7753372,27.0507629 50.7753372,27.9993267 C50.7753372,28.9478905 50.2675534,29.8240702 49.4439955,30.2965539 L53.4229348,28.0052935 C55.0745335,27.0615241 55.9617266,25.1893427 55.6454053,23.3153698 Z" id="Path" fill="url(#linearGradient-4)"></path>
                </g>
                <text id="admin-portal" font-family="Poppins-Regular, Poppins" font-size="18" font-weight="normal" letter-spacing="-0.00112831579" fill="#FF53A5">
                    <tspan x="157.41677" y="94">admin portal</tspan>
                </text>
            </g>
        </g>
    </g>
</svg>