<?xml version="1.0" encoding="UTF-8"?>
<svg width="14px" height="11px" viewBox="0 0 14 11" version="1.1" xmlns="http://www.w3.org/2000/svg" xmlns:xlink="http://www.w3.org/1999/xlink">
    <title>noun_Sort_3163816 Copy 2</title>
    <g id="Page-1" stroke="none" stroke-width="1" fill="none" fill-rule="evenodd">
        <g id="Sort2" transform="translate(-597.000000, -154.000000)" fill="#001047" fill-rule="nonzero">
            <g id="noun_Sort_3163816-Copy-2" transform="translate(597.000000, 154.000000)">
                <path d="M14,0.5 C14,0.776142375 13.7761424,1 13.5,1 L0.5,1 C0.223857625,1 0,0.776142375 0,0.5 C0,0.223857625 0.223857625,0 0.5,0 L13.5,0 C13.7761424,0 14,0.223857625 14,0.5 Z M11.5,5 L2.5,5 C2.22385763,5 2,5.22385763 2,5.5 C2,5.77614237 2.22385763,6 2.5,6 L11.5,6 C11.7761424,6 12,5.77614237 12,5.5 C12,5.22385763 11.7761424,5 11.5,5 Z M9.5,10 L4.5,10 C4.22385763,10 4,10.2238576 4,10.5 C4,10.7761424 4.22385763,11 4.5,11 L9.5,11 C9.77614237,11 10,10.7761424 10,10.5 C10,10.2238576 9.77614237,10 9.5,10 Z" id="Shape"></path>
            </g>
        </g>
    </g>
</svg>